Coordinates
version=1
nRows=11
nColumns=36
inDegrees=yes

Units are S.I. units (second, meters, Newtons, ...)
If the header above contains a line with 'inDegrees', this indicates whether rotational values are in degrees (yes) or radians (no).

endheader
time	pelvis_tilt	pelvis_list	pelvis_rotation	pelvis_tx	pelvis_ty	pelvis_tz	hip_flexion_r	hip_adduction_r	hip_rotation_r	knee_angle_r	knee_angle_r_beta	ankle_angle_r	subtalar_angle_r	mtp_angle_r	hip_flexion_l	hip_adduction_l	hip_rotation_l	knee_angle_l	knee_angle_l_beta	ankle_angle_l	subtalar_angle_l	mtp_angle_l	lumbar_extension	lumbar_bending	lumbar_rotation	arm_flex_r	arm_add_r	arm_rot_r	elbow_flex_r	pro_sup_r	arm_flex_l	arm_add_l	arm_rot_l	elbow_flex_l	pro_sup_l
      1.42000000	    -25.47830715	     -0.39979335	      2.19245511	     -0.25453025	      0.67978831	     -0.58646541	     83.33657460	    -14.51907352	      5.68430722	     92.65976180	      1.61721793	     32.32163306	     -5.13990571	     -7.50860715	     85.20678698	     -8.79485108	      8.65799662	     89.81829626	      1.56762500	     25.32335480	     -5.89707647	     -7.50860715	    -25.91222145	      0.59738714	     -5.77327165	    117.69347252	    -40.23859210	     50.86049356	    105.08152249	     79.32115356	    -66.60964998	    -99.44920980	   -126.94852733	    132.85898115	    105.73097850
      1.43000000	    -25.27511502	     -0.52748897	      2.37428045	     -0.24908051	      0.69163195	     -0.58639026	     81.40585260	    -14.77772605	      4.87849531	     90.83903506	      1.58544025	     31.76154101	     -4.97555053	     -7.50766227	     83.45208118	     -8.84641552	      8.34458360	     87.99824673	      1.53585914	     24.62322694	     -5.88468507	     -7.50766227	    -25.62312471	      1.30404460	     -7.99606382	    116.71202904	    -37.54164056	     49.56730309	    104.61593271	     80.03352174	    -63.99988915	    -92.45958925	   -125.63875378	    136.65183911	    104.84010706
      1.44000000	    -24.99748952	     -0.14939792	      2.45397622	     -0.24340247	      0.70427309	     -0.58524626	     79.54670722	    -15.01774010	      4.57416027	     88.98269759	      1.55304105	     31.04280317	     -4.82542235	     -7.50068572	     81.30220696	     -8.98558113	      7.46325408	     85.88500726	      1.49897615	     23.73023212	     -5.91987512	     -7.50068572	    -26.81093087	      0.76859083	    -16.84446448	    111.94355900	    -28.83963355	     42.70948910	    101.72933847	     86.85556106	    -92.47958624	    -70.11753911	   -160.35365406	    142.84083044	     98.36599554
      1.45000000	    -24.52303445	     -0.03258156	      2.44366959	     -0.23778908	      0.71783762	     -0.58455185	     77.28027107	    -15.14334926	      3.93427616	     86.84048419	      1.51565237	     30.14626198	     -4.87631803	     -7.50064491	     78.97654545	     -9.21975047	      6.82654967	     83.69138433	      1.46069021	     22.67544860	     -6.04453530	     -7.50064491	    -26.77564806	      0.40377971	    -18.37893110	    110.32132698	    -28.39908496	     41.25296847	    102.92139500	     86.48787829	    -89.05095526	    -64.34608951	   -159.13342428	    145.30804899	     98.02248366
      1.46000000	    -23.78835749	      0.15770046	      2.36023044	     -0.23193537	      0.73245322	     -0.58364754	     74.65377558	    -15.21935897	      3.31043957	     84.53260100	      1.47537221	     29.40752881	     -4.58980082	     -7.50063829	     76.23740998	     -9.53600082	      6.05576921	     81.32269667	      1.41934881	     21.81763552	     -5.59541304	     -7.50063829	    -26.73555328	     -0.18532249	    -18.48378850	    109.02510980	    -29.88710563	     40.74547492	    104.99067284	     86.60216476	    -87.42990848	    -61.48220913	   -158.62086570	    147.39908776	     98.24093686
      1.47000000	    -23.19615147	      0.19994781	      2.33724348	     -0.22569567	      0.74783066	     -0.58309465	     71.93533678	    -15.31265368	      2.43011241	     81.87246034	      1.42894400	     28.15640015	     -4.94329188	     -7.50061475	     73.58293463	     -9.80454241	      5.34483037	     78.69628486	      1.37350928	     20.39323520	     -5.85783758	     -7.50061475	    -26.48724032	     -0.38097476	    -20.10571426	    106.68073149	    -28.94314887	     39.04506297	    105.90472140	     86.52898591	    -83.83679128	    -55.34054784	   -157.73855822	    148.98532476	     99.46181978
      1.48000000	    -22.37526607	      0.32639481	      2.34092457	     -0.21943282	      0.76414210	     -0.58245214	     68.92962422	    -15.46013322	      1.53631278	     79.06601097	      1.37996222	     26.86952368	     -5.06067433	     -7.50054563	     70.57958874	    -10.04284923	      4.49091638	     75.84946020	      1.32382282	     18.80093942	     -5.88864167	     -7.50054563	    -26.36060400	     -0.87823091	    -20.81393820	    104.43369856	    -29.54017887	     37.90182853	    107.38980030	     86.82073938	    -82.40194658	    -51.14758616	   -159.00351238	    149.40476359	    106.96857305
      1.49000000	    -21.62564209	      0.09067856	      2.42756331	     -0.21317123	      0.78076316	     -0.58206214	     65.75548931	    -15.43843949	      0.21549640	     75.97786487	      1.32606390	     25.38831156	     -5.29005203	     -7.50052438	     67.78480627	    -10.34550840	      4.02904866	     72.93537979	      1.27296252	     17.04084657	     -5.79011086	     -7.50052438	    -25.86003118	     -0.78778885	    -21.28472929	    102.22286909	    -29.93384464	     37.25136230	    108.40259114	     87.02851355	    -80.18389028	    -47.30822674	   -158.45424332	    149.65898242	    110.19797099
      1.50000000	    -20.75364466	     -0.16916859	      2.54504694	     -0.20671953	      0.79818831	     -0.58169783	     62.32627541	    -15.32751564	     -1.12745158	     72.65500249	      1.26806901	     23.80026404	     -5.18752973	     -7.50051406	     64.77676991	    -10.64944723	      3.55584794	     69.82757004	      1.21872101	     15.22869139	     -5.34789706	     -7.50051406	    -25.40905863	     -0.73125207	    -21.47754198	     99.80215070	    -30.90144527	     36.82736037	    109.47255338	     87.21062122	    -78.30506579	    -43.98039245	   -158.03632459	    149.76712197	    112.66426226
      1.51000000	    -20.07317534	     -0.32416229	      2.61088522	     -0.20014943	      0.81607759	     -0.58120263	     59.08262045	    -15.10452848	     -2.29185541	     69.06199298	      1.20535917	     21.49202698	     -5.89931107	     -7.50049464	     61.79882775	    -10.91197077	      2.87045687	     66.37692516	      1.15849589	     12.77712572	     -5.70869180	     -7.50049464	    -24.51873992	     -0.87116088	    -21.98051324	     96.63951135	    -31.23120502	     36.50102042	    109.82176706	     87.48004495	    -76.86694323	    -40.12077569	   -157.48457603	    149.81918917	    116.58761756
      1.52000000	    -19.29086067	     -0.14667487	      2.60411727	     -0.19340715	      0.83500916	     -0.58046926	     55.77721362	    -14.97024367	     -3.06426443	     65.29634882	      1.13963628	     19.12511982	     -6.02459980	     -7.50047988	     58.39439525	    -11.03660121	      1.77633854	     62.50593106	      1.09093430	     10.25199229	     -5.53928058	     -7.50047988	    -23.69852751	     -1.43707438	    -22.32867976	     93.01219290	    -31.74392124	     36.15979445	    110.00916720	     87.68032155	    -75.51657835	    -36.79217181	   -156.17114698	    149.85599747	    117.52589889
